<svg version="1.1" xmlns="http://www.w3.org/2000/svg" xmlns:xlink="http://www.w3.org/1999/xlink" width="1560" height="804"><defs/><g><path fill="none" stroke="#02063B" paint-order="fill stroke markers" d=" M 20 409.93416610309345 L 21 410.3296868416004 L 22 410.72503390415466 L 23 411.12019904767584 L 24 411.5151740328767 L 25 411.9099506244348 L 26 412.3045205911643 L 27 412.6988757061875 L 28 413.09300774710636 L 29 413.48690849617407 L 30 413.8805697404663 L 31 414.2739832720524 L 32 414.66714088816667 L 33 415.0600343913792 L 34 415.452655589767 L 35 415.84499629708466 L 36 416.2370483329351 L 37 416.62880352294 L 38 417.0202536989105 L 39 417.41139069901726 L 40 417.8022063679607 L 41 418.19269255714124 L 42 418.58284112482886 L 43 418.97264393633304 L 44 419.3620928641725 L 45 419.7511797882443 L 46 420.13989659599366 L 47 420.5282351825825 L 48 420.91618745105893 L 49 421.3037453125258 L 50 421.69090068630953 L 51 422.0776455001285 L 52 422.4639716902612 L 53 422.8498712017147 L 54 423.2353359883923 L 55 423.6203580132616 L 56 424.00492924852165 L 57 424.3890416757707 L 58 424.77268728617327 L 59 425.1558580806271 L 60 425.53854606992996 L 61 425.9207432749462 L 62 426.30244172677305 L 63 426.6836334669071 L 64 427.06431054740983 L 65 427.4444650310735 L 66 427.8240889915867 L 67 428.2031745136995 L 68 428.5817136933885 L 69 428.95969863802185 L 70 429.3371214665234 L 71 429.71397430953743 L 72 430.0902493095925 L 73 430.46593862126525 L 74 430.8410344113442 L 75 431.21552885899285 L 76 431.5894141559129 L 77 431.96268250650684 L 78 432.33532612804083 L 79 432.7073372508067 L 80 433.0787081182839 L 81 433.4494309873016 L 82 433.8194981281997 L 83 434.1889018249903 L 84 434.5576343755184 L 85 434.9256880916225 L 86 435.29305529929513 L 87 435.6597283388426 L 88 436.0256995650448 L 89 436.39096134731454 L 90 436.7555060698567 L 91 437.1193261318271 L 92 437.48241394749095 L 93 437.8447619463808 L 94 438.2063625734547 L 95 438.56720828925353 L 96 438.92729157005823 L 97 439.28660490804674 L 98 439.6451408114504 L 99 440.00289180471043 L 100 440.35985042863337 L 101 440.716009240547 L 102 441.0713608144554 L 103 441.42589774119364 L 104 441.77961262858247 L 105 442.1324981015823 L 106 442.484546802447 L 107 442.83575139087753 L 108 443.1861045441745 L 109 443.53559895739136 L 110 443.88422734348643 L 111 444.2319824334749 L 112 444.57885697658037 L 113 444.92484374038617 L 114 445.2699355109858 L 115 445.6141250931338 L 116 445.95740531039553 L 117 446.2997690052967 L 118 446.64120903947287 L 119 446.981718293818 L 120 447.32128966863314 L 121 447.6599160837744 L 122 447.99759047880036 L 123 448.33430581311956 L 124 448.67005506613714 L 125 449.0048312374013 L 126 449.3386273467492 L 127 449.6714364344526 L 128 450.0032515613627 L 129 450.3340658090552 L 130 450.6638722799744 L 131 450.9926640975767 L 132 451.32043440647476 L 133 451.6471763725794 L 134 451.97288318324297 L 135 452.29754804740094 L 136 452.6211641957137 L 137 452.94372488070746 L 138 453.2652233769153 L 139 453.58565298101695 L 140 453.90500701197897 L 141 454.22327881119384 L 142 454.54046174261873 L 143 454.8565491929142 L 144 455.17153457158156 L 145 455.4854113111008 L 146 455.79817286706714 L 147 456.10981271832776 L 148 456.4203243671176 L 149 456.72970133919483 L 150 457.03793718397606 L 151 457.3450254746706 L 152 457.65095980841437 L 153 457.9557338064039 L 154 458.25934111402864 L 155 458.56177540100407 L 156 458.8630303615033 L 157 459.1630997142888 L 158 459.4619772028431 L 159 459.7596565954995 L 160 460.0561316855717 L 161 460.35139629148364 L 162 460.64544425689803 L 163 460.93826945084476 L 164 461.2298657678489 L 165 461.5202271280578 L 166 461.809347477368 L 167 462.0972207875516 L 168 462.3838410563813 L 169 462.66920230775656 L 170 462.9532985918272 L 171 463.2361239851182 L 172 463.51767259065275 L 173 463.7979385380754 L 174 464.0769159837746 L 175 464.35459911100406 L 176 464.63098213000467 L 177 464.90605927812453 L 178 465.17982481993977 L 179 465.45227304737364 L 180 465.7233982798158 L 181 465.99319486424065 L 182 466.2616571753252 L 183 466.52877961556635 L 184 466.7945566153977 L 185 467.0589826333055 L 186 467.32205215594445 L 187 467.58375969825227 L 188 467.8440998035646 L 189 468.1030670437282 L 190 468.3606560192144 L 191 468.61686135923196 L 192 468.8716777218384 L 193 469.12509979405206 L 194 469.37712229196234 L 195 469.62773996084024 L 196 469.87694757524775 L 197 470.1247399391467 L 198 470.37111188600744 L 199 470.6160582789163 L 200 470.85957401068254 L 201 471.10165400394527 L 202 471.3422932112791 L 203 471.58148661529924 L 204 471.8192292287663 L 205 472.05551609469023 L 206 472.29034228643366 L 207 472.5237029078146 L 208 472.7555930932085 L 209 472.98600800764996 L 210 473.21494284693307 L 211 473.442392837712 L 212 473.6683532376003 L 213 473.8928193352699 L 214 474.1157864505492 L 215 474.33724993452086 L 216 474.55720516961844 L 217 474.775647569723 L 218 474.9925725802585 L 219 475.20797567828697 L 220 475.4218523726024 L 221 475.634198203825 L 222 475.84500874449344 L 223 476.0542795991579 L 224 476.2620064044713 L 225 476.46818482928023 L 226 476.6728105747156 L 227 476.87587937428174 L 228 477.077386993946 L 229 477.2773292322266 L 230 477.47570192028013 L 231 477.67250092198896 L 232 477.867722134047 L 233 478.06136148604566 L 234 478.25341494055823 L 235 478.44387849322453 L 236 478.63274817283417 L 237 478.8200200414094 L 238 479.0056901942872 L 239 479.1897547602007 L 240 479.37220990135984 L 241 479.5530518135316 L 242 479.73227672611904 L 243 479.9098809022401 L 244 480.08586063880546 L 245 480.26021226659566 L 246 480.4329321503379 L 247 480.6040166887813 L 248 480.77346231477276 L 249 480.9412654953305 L 250 481.1074227317184 L 251 481.2719305595184 L 252 481.4347855487032 L 253 481.5959843037076 L 254 481.7555234634991 L 255 481.91339970164836 L 256 482.0696097263981 L 257 482.22415028073226 L 258 482.37701814244343 L 259 482.5282101242004 L 260 482.6777230736143 L 261 482.8255538733046 L 262 482.9716994409639 L 263 483.1161567294224 L 264 483.25892272671126 L 265 483.3999944561254 L 266 483.53936897628574 L 267 483.67704338120035 L 268 483.81301480032516 L 269 483.9472803986237 L 270 484.0798373766263 L 271 484.21068297048845 L 272 484.33981445204836 L 273 484.4672291288839 L 274 484.5929243443687 L 275 484.71689747772774 L 276 484.83914594409157 L 277 484.95966719455066 L 278 485.07845871620816 L 279 485.1955180322327 L 280 485.31084270190956 L 281 485.424430320692 L 282 485.53627852025113 L 283 485.64638496852547 L 284 485.7547473697692 L 285 485.8613634646006 L 286 485.96623103004856 L 287 486.0693478795996 L 288 486.1707118632428 L 289 486.27032086751484 L 290 486.3681728155445 L 291 486.4642656670952 L 292 486.5585974186082 L 293 486.65116610324407 L 294 486.7419697909236 L 295 486.8310065883684 L 296 486.91827463914 L 297 487.0037721236788 L 298 487.0874972593419 L 299 487.16944830044025 L 300 487.2496235382752 L 301 487.328021301174 L 302 487.40463995452455 L 303 487.4794779008097 L 304 487.55253357964057 L 305 487.6238054677887 L 306 487.6932920792184 L 307 487.7609919651173 L 308 487.8269037139266 L 309 487.8910259513706 L 310 487.95335734048547 L 311 488.013896581647 L 312 488.0726424125974 L 313 488.1295936084723 L 314 488.1847489818256 L 315 488.23810738265473 L 316 488.28966769842424 L 317 488.33942885408936 L 318 488.3873898121181 L 319 488.43354957251313 L 320 488.4779071728324 L 321 488.52046168820937 L 322 488.56121223137234 L 323 488.6001579526628 L 324 488.6372980400531 L 325 488.67263171916363 L 326 488.70615825327883 L 327 488.7378769433624 L 328 488.76778712807214 L 329 488.79588818377357 L 330 488.822179524553 L 331 488.84666060222975 L 332 488.86933090636745 L 333 488.89018996428496 L 334 488.9092373410659 L 335 488.92647263956786 L 336 488.9418955004309 L 337 488.95550560208466 L 338 488.96730266075525 L 339 488.9772864304712 L 340 488.98545670306856 L 341 488.99181330819516 L 342 488.99635611331433 L 343 488.99908502370744 L 344 488.9999999824761 L 345 488.99910097054317 L 346 488.9963880066533 L 347 488.9918611473724 L 348 488.98552048708655 L 349 488.9773661580001 L 350 488.9673983301327 L 351 488.95561721131594 L 352 488.9420230471889 L 353 488.9266161211932 L 354 488.90939675456696 L 355 488.8903653063379 L 356 488.86952217331645 L 357 488.8468677900868 L 358 488.82240262899813 L 359 488.79612720015507 L 360 488.7680420514064 L 361 488.7381477683342 L 362 488.7064449742415 L 363 488.6729343301389 L 364 488.6376165347315 L 365 488.60049232440355 L 366 488.5615624732038 L 367 488.52082779282887 L 368 488.47828913260656 L 369 488.433947379478 L 370 488.3878034579794 L 371 488.3398583302224 L 372 488.2901129958744 L 373 488.23856849213735 L 374 488.1852258937265 L 375 488.13008631284777 L 376 488.0731508991744 L 377 488.0144208398234 L 378 487.95389735933054 L 379 487.8915817196247 L 380 487.82747522000176 L 381 487.7615791970976 L 382 487.6938950248599 L 383 487.62442411451985 L 384 487.5531679145623 L 385 487.4801279106962 L 386 487.4053056258228 L 387 487.3287026200046 L 388 487.2503204904326 L 389 487.17016087139274 L 390 487.0882254342322 L 391 487.0045158873243 L 392 486.9190339760331 L 393 486.8317814826767 L 394 486.7427602264904 L 395 486.6519720635886 L 396 486.559418886926 L 397 486.4651026262584 L 398 486.3690252481023 L 399 486.2711887556939 L 400 486.1715951889473 L 401 486.0702466244122 L 402 485.96714517523014 L 403 485.8622929910909 L 404 485.7556922581875 L 405 485.64734519917056 L 406 485.5372540731021 L 407 485.42542117540813 L 408 485.3118488378314 L 409 485.19653942838204 L 410 485.07949535128876 L 411 484.96071904694827 L 412 484.840212991875 L 413 484.7179796986486 L 414 484.5940217158626 L 415 484.4683416280702 L 416 484.34094205573126 L 417 484.2118256551572 L 418 484.0809951184557 L 419 483.94845317347443 L 420 483.81420258374465 L 421 483.678246148423 L 422 483.54058670223355 L 423 483.4012271154086 L 424 483.26017029362845 L 425 483.11741917796166 L 426 482.97297674480285 L 427 482.8268460058111 L 428 482.6790300078471 L 429 482.5295318329096 L 430 482.3783545980711 L 431 482.225501455413 L 432 482.07097559195955 L 433 481.9147802296119 L 434 481.75691862508046 L 435 481.59739406981726 L 436 481.43620988994724 L 437 481.27336944619896 L 438 481.1088761338343 L 439 480.94273338257807 L 440 480.7749446565461 L 441 480.6055134541733 L 442 480.43444330814054 L 443 480.2617377853011 L 444 480.08740048660616 L 445 479.91143504702995 L 446 479.73384513549365 L 447 479.5546344547893 L 448 479.3738067415022 L 449 479.1913657659332 L 450 479.00731533201997 L 451 478.821659277258 L 452 478.6344014726201 L 453 478.4455458224761 L 454 478.25509626451117 L 455 478.06305676964405 L 456 477.8694313419438 L 457 477.6742240185467 L 458 477.47743886957187 L 459 477.2790799980365 L 460 477.07915153977024 L 461 476.8776576633291 L 462 476.67460256990825 L 463 476.4699904932547 L 464 476.2638256995791 L 465 476.0561124874663 L 466 475.8468551877862 L 467 475.63605816360337 L 468 475.4237258100859 L 469 475.20986255441386 L 470 474.99447285568704 L 471 474.77756120483184 L 472 474.5591321245079 L 473 474.3391901690135 L 474 474.1177399241907 L 475 473.8947860073298 L 476 473.6703330670731 L 477 473.4443857833178 L 478 473.2169488671184 L 479 472.9880270605888 L 480 472.7576251368032 L 481 472.5257478996965 L 482 472.2924001839642 L 483 472.0575868549618 L 484 471.821312808603 L 485 471.583582971258 L 486 471.34440229965037 L 487 471.10377578075406 L 488 470.86170843168924 L 489 470.6182052996178 L 490 470.37327146163784 L 491 470.12691202467835 L 492 469.87913212539206 L 493 469.6299369300489 L 494 469.379331634428 L 495 469.1273214637094 L 496 468.87391167236507 L 497 468.61910754404954 L 498 468.3629143914894 L 499 468.10533755637306 L 500 467.84638240923863 L 501 467.5860543493626 L 502 467.3243588046469 L 503 467.06130123150604 L 504 466.79688711475296 L 505 466.5311219674849 L 506 466.2640113309684 L 507 465.9955607745239 L 508 465.7257758954092 L 509 465.45466231870336 L 510 465.18222569718887 L 511 464.90847171123426 L 512 464.63340606867513 L 513 464.35703450469566 L 514 464.0793627817087 L 515 463.8003966892358 L 516 463.5201420437863 L 517 463.23860468873625 L 518 462.9557904942065 L 519 462.6717053569403 L 520 462.3863552001804 L 521 462.09974597354545 L 522 461.811883652906 L 523 461.52277424026 L 524 461.23242376360736 L 525 460.9408382768248 L 526 460.6480238595389 L 527 460.35398661700015 L 528 460.05873267995486 L 529 459.7622682045179 L 530 459.4645993720441 L 531 459.16573238899963 L 532 458.865673486832 L 533 458.56442892184083 L 534 458.2620049750469 L 535 457.9584079520616 L 536 457.6536441829549 L 537 457.34772002212407 L 538 457.0406418481606 L 539 456.73241606371755 L 540 456.42304909537575 L 541 456.11254739351017 L 542 455.8009174321552 L 543 455.4881657088696 L 544 455.17429874460134 L 545 454.85932308355126 L 546 454.5432452930368 L 547 454.2260719633552 L 548 453.90780970764575 L 549 453.58846516175225 L 550 453.26804498408455 L 551 452.94655585547946 L 552 452.6240044790619 L 553 452.3003975801048 L 554 451.97574190588904 L 555 451.6500442255626 L 556 451.3233113299997 L 557 450.9955500316589 L 558 450.66676716444135 L 559 450.33696958354795 L 560 450.0061641653368 L 561 449.6743578071796 L 562 449.3415574273178 L 563 449.0077699647186 L 564 448.67300237892994 L 565 448.3372616499357 L 566 448.00055477801 L 567 447.66288878357113 L 568 447.32427070703557 L 569 446.98470760867065 L 570 446.6442065684478 L 571 446.30277468589486 L 572 445.96041907994766 L 573 445.6171468888021 L 574 445.2729652697651 L 575 444.9278813991052 L 576 444.58190247190345 L 577 444.2350357019025 L 578 443.8872883213573 L 579 443.5386675808834 L 580 443.1891807493061 L 581 442.8388351135091 L 582 442.48763797828224 L 583 442.13559666616936 L 584 441.78271851731563 L 585 441.4290108893144 L 586 441.07448115705375 L 587 440.7191367125632 L 588 440.3629849648588 L 589 440.00603333978927 L 590 439.64828927988094 L 591 439.2897602441826 L 592 438.93045370811 L 593 438.5703771632898 L 594 438.20953811740367 L 595 437.84794409403173 L 596 437.4856026324952 L 597 437.1225212876999 L 598 436.7587076299782 L 599 436.3941692449315 L 600 436.02891373327185 L 601 435.6629487106635 L 602 435.29628180756436 L 603 434.9289206690666 L 604 434.5608729547373 L 605 434.192146338459 L 606 433.8227485082692 L 607 433.45268716620075 L 608 433.0819700281206 L 609 432.7106048235693 L 610 432.33859929559975 L 611 431.96596120061577 L 612 431.5926983082102 L 613 431.2188184010032 L 614 430.84432927447983 L 615 430.4692387368275 L 616 430.0935546087732 L 617 429.7172847234203 L 618 429.3404369260855 L 619 428.9630190741351 L 620 428.585039036821 L 621 428.206504695117 L 622 427.8274239415542 L 623 427.44780468005644 L 624 427.0676548257758 L 625 426.686982304927 L 626 426.3057950546229 L 627 425.92410102270827 L 628 425.54190816759444 L 629 425.1592244580935 L 630 424.7760578732517 L 631 424.39241640218364 L 632 424.0083080439053 L 633 423.6237408071672 L 634 423.2387227102879 L 635 422.8532617809863 L 636 422.4673660562144 L 637 422.08104358199 L 638 421.6943024132285 L 639 421.3071506135754 L 640 420.9195962552378 L 641 420.5316474188163 L 642 420.1433121931364 L 643 419.7545986750801 L 644 419.3655149694166 L 645 418.97606918863386 L 646 418.586269452769 L 647 418.19612388923923 L 648 417.8056406326725 L 649 417.4148278247376 L 650 417.0236936139745 L 651 416.63224615562467 L 652 416.24049361146064 L 653 415.8484441496163 L 654 415.4561059444161 L 655 415.06348717620506 L 656 414.67059603117787 L 657 414.27744070120843 L 658 413.8840293836789 L 659 413.49037028130897 L 660 413.0964716019844 L 661 412.7023415585865 L 662 412.3079883688205 L 663 411.9134202550441 L 664 411.5186454440966 L 665 411.1236721671265 L 666 410.72850865942064 L 667 410.33316316023235 L 668 409.93764391260925 L 669 409.54195916322175 L 670 409.1461171621911 L 671 408.7501261629172 L 672 408.3539944219065 L 673 407.95773019860025 L 674 407.5613417552016 L 675 407.1648373565041 L 676 406.76822526971864 L 677 406.37151376430177 L 678 405.97471111178265 L 679 405.5778255855911 L 680 405.1808654608847 L 681 404.78383901437655 L 682 404.38675452416254 L 683 403.98962026954877 L 684 403.5924445308789 L 685 403.19523558936163 L 686 402.79800172689795 L 687 402.4007512259084 L 688 402.0034923691604 L 689 401.60623343959566 L 690 401.2089827201574 L 691 400.8117484936177 L 692 400.4145390424046 L 693 400.01736264842975 L 694 399.62022759291546 L 695 399.2231421562221 L 696 398.8261146176756 L 697 398.4291532553945 L 698 398.03226634611775 L 699 397.63546216503187 L 700 397.2387489855983 L 701 396.8421350793814 L 702 396.44562871587544 L 703 396.0492381623324 L 704 395.6529716835897 L 705 395.2568375418977 L 706 394.86084399674746 L 707 394.4649993046987 L 708 394.06931171920746 L 709 393.67378949045394 L 710 393.27844086517086 L 711 392.883274086471 L 712 392.48829739367585 L 713 392.0935190221433 L 714 391.6989472030965 L 715 391.3045901634517 L 716 390.91045612564693 L 717 390.5165533074707 L 718 390.12288992189065 L 719 389.72947417688187 L 720 389.3363142752563 L 721 388.9434184144915 L 722 388.55079478655955 L 723 388.15845157775664 L 724 387.7663969685319 L 725 387.3746391333174 L 726 386.9831862403571 L 727 386.59204645153693 L 728 386.2012279222147 L 729 385.8107388010496 L 730 385.4205872298328 L 731 385.03078134331736 L 732 384.6413292690488 L 733 384.2522391271956 L 734 383.8635190303797 L 735 383.4751770835076 L 736 383.08722138360145 L 737 382.69966001962973 L 738 382.31250107233916 L 739 381.92575261408604 L 740 381.53942270866753 L 741 381.15351941115426 L 742 380.76805076772183 L 743 380.383024815483 L 744 379.9984495823207 L 745 379.61433308671985 L 746 379.2306833376009 L 747 378.84750833415245 L 748 378.46481606566437 L 749 378.0826145113616 L 750 377.70091164023756 L 751 377.31971541088785 L 752 376.9390337713446 L 753 376.5588746589105 L 754 376.17924599999355 L 755 375.8001557099417 L 756 375.4216116928776 L 757 375.0436218415341 L 758 374.6661940370896 L 759 374.2893361490036 L 760 373.91305603485273 L 761 373.5373615401669 L 762 373.1622604982657 L 763 372.7877607300952 L 764 372.4138700440646 L 765 372.0405962358837 L 766 371.6679470884003 L 767 371.29593037143763 L 768 370.92455384163287 L 769 370.553825242275 L 770 370.1837523031436 L 771 369.8143427403474 L 772 369.4456042561638 L 773 369.0775445388778 L 774 368.7101712626223 L 775 368.3434920872173 L 776 367.97751465801105 L 777 367.61224660571986 L 778 367.2476955462696 L 779 366.8838690806367 L 780 366.52077479468943 L 781 366.1584202590301 L 782 365.796813028837 L 783 365.4359606437069 L 784 365.0758706274979 L 785 364.7165504881726 L 786 364.35800771764127 L 787 364.0002497916061 L 788 363.6432841694049 L 789 363.2871182938559 L 790 362.9317595911024 L 791 362.5772154704577 L 792 362.22349332425136 L 793 361.87060052767407 L 794 361.5185444386247 L 795 361.16733239755655 L 796 360.81697172732413 L 797 360.46746973303084 L 798 360.11883370187644 L 799 359.7710709030051 L 800 359.42418858735397 L 801 359.07819398750183 L 802 358.7330943175184 L 803 358.388896772814 L 804 358.0456085299893 L 805 357.7032367466858 L 806 357.3617885614367 L 807 357.02127109351795 L 808 356.6816914427997 L 809 356.3430566895985 L 810 356.00537389452955 L 811 355.6686500983595 L 812 355.33289232185956 L 813 354.9981075656593 L 814 354.6643028101006 L 815 354.33148501509197 L 816 353.99966111996366 L 817 353.6688380433228 L 818 353.3390226829093 L 819 353.01022191545195 L 820 352.6824425965249 L 821 352.355691560405 L 822 352.02997561992913 L 823 351.70530156635203 L 824 351.38167616920515 L 825 351.0591061761549 L 826 350.7375983128624 L 827 350.4171592828432 L 828 350.0977957673272 L 829 349.7795144251198 L 830 349.4623218924627 L 831 349.1462247828956 L 832 348.83122968711854 L 833 348.51734317285417 L 834 348.204571784711 L 835 347.89292204404694 L 836 347.5824004488332 L 837 347.273013473519 L 838 346.96476756889626 L 839 346.6576691619656 L 840 346.3517246558018 L 841 346.0469404294206 L 842 345.7433228376456 L 843 345.440878210976 L 844 345.13961285545406 L 845 344.8395330525342 L 846 344.5406450589518 L 847 344.2429551065925 L 848 343.9464694023627 L 849 343.6511941280599 L 850 343.35713544024384 L 851 343.0642994701081 L 852 342.7726923233523 L 853 342.482320080055 L 854 342.19318879454636 L 855 341.9053044952826 L 856 341.6186731847199 L 857 341.33330083918923 L 858 341.0491934087719 L 859 340.7663568171754 L 860 340.48479696161 L 861 340.20451971266573 L 862 339.92553091418995 L 863 339.6478363831653 L 864 339.37144190958907 L 865 339.0963532563517 L 866 338.822576159117 L 867 338.55011632620267 L 868 338.2789794384611 L 869 338.0091711491608 L 870 337.7406970838689 L 871 337.4735628403335 L 872 337.2077739883672 L 873 336.9433360697307 L 874 336.68025459801765 L 875 336.4185350585393 L 876 336.1581829082103 L 877 335.89920357543485 L 878 335.6416024599938 L 879 335.38538493293174 L 880 335.1305563364449 L 881 334.8771219837703 L 882 334.6250871590744 L 883 334.37445711734335 L 884 334.12523708427307 L 885 333.8774322561607 L 886 333.63104779979574 L 887 333.38608885235277 L 888 333.1425605212841 L 889 332.90046788421347 L 890 332.6598159888299 L 891 332.4206098527827 L 892 332.1828544635767 L 893 331.94655477846834 L 894 331.7117157243623 L 895 331.4783421977088 L 896 331.2464390644013 L 897 331.0160111596753 L 898 330.7870632880075 L 899 330.55960022301554 L 900 330.3336267073584 L 901 330.1091474526377 L 902 329.88616713929923 L 903 329.6646904165357 L 904 329.4447219021893 L 905 329.22626618265605 L 906 329.0093278127897 L 907 328.7939113158068 L 908 328.5800211831925 L 909 328.36766187460717 L 910 328.15683781779273 L 911 327.9475534084811 L 912 327.7398130103019 L 913 327.53362095469186 L 914 327.3289815408044 L 915 327.1258990354201 L 916 326.9243776728574 L 917 326.72442165488485 L 918 326.52603515063277 L 919 326.32922229650706 L 920 326.13398719610257 L 921 325.9403339201176 L 922 325.74826650626915 L 923 325.55778895920827 L 924 325.3689052504373 L 925 325.1816193182265 L 926 324.9959350675321 L 927 324.81185636991495 L 928 324.6293870634596 L 929 324.4485309526946 L 930 324.2692918085129 L 931 324.0916733680932 L 932 323.91567933482236 L 933 323.7413133782178 L 934 323.56857913385124 L 935 323.3974802032727 L 936 323.2280201539357 L 937 323.0602025191225 L 938 322.8940307978708 L 939 322.7295084549005 L 940 322.56663892054155 L 941 322.40542559066256 L 942 322.2458718265998 L 943 322.08798095508723 L 944 321.9317562681871 L 945 321.7772010232212 L 946 321.62431844270327 L 947 321.47311171427145 L 948 321.32358399062207 L 949 321.1757383894437 L 950 321.0295779933523 L 951 320.8851058498269 L 952 320.7423249711461 L 953 320.6012383343252 L 954 320.46184888105415 L 955 320.3241595176362 L 956 320.1881731149273 L 957 320.05389250827636 L 958 319.92132049746596 L 959 319.79045984665413 L 960 319.6613132843165 L 961 319.53388350318966 L 962 319.4081731602148 L 963 319.28418487648264 L 964 319.16192123717826 L 965 319.0413847915277 L 966 318.9225780527445 L 967 318.80550349797744 L 968 318.69016356825887 L 969 318.57656066845374 L 970 318.4646971672096 L 971 318.35457539690697 L 972 318.24619765361103 L 973 318.1395661970235 L 974 318.03468325043565 L 975 317.93155100068185 L 976 317.830171598094 L 977 317.7305471564569 L 978 317.6326797529637 L 979 317.5365714281732 L 980 317.4422241859668 L 981 317.34963999350686 L 982 317.2588207811959 L 983 317.1697684426361 L 984 317.0824848345899 L 985 316.99697177694134 L 986 316.9132310526579 L 987 316.8312644077538 L 988 316.7510735512529 L 989 316.6726601551537 L 990 316.59602585439427 L 991 316.52117224681786 L 992 316.4481008931401 L 993 316.37681331691607 L 994 316.30731100450873 L 995 316.2395954050578 L 996 316.1736679304496 L 997 316.10952995528777 L 998 316.0471828168643 L 999 315.9866278151318 L 1000 315.9278662126765 L 1001 315.8708992346919 L 1002 315.81572806895286 L 1003 315.7623538657915 L 1004 315.7107777380725 L 1005 315.66100076117056 L 1006 315.6130239729473 L 1007 315.56684837373035 L 1008 315.5224749262918 L 1009 315.4799045558287 L 1010 315.43913814994335 L 1011 315.400176558625 L 1012 315.3630205942321 L 1013 315.32767103147535 L 1014 315.2941286074016 L 1015 315.2623940213783 L 1016 315.2324679350792 L 1017 315.20435097247025 L 1018 315.17804371979685 L 1019 315.15354672557146 L 1020 315.1308605005622 L 1021 315.1099855177824 L 1022 315.0909222124802 L 1023 315.07367098213024 L 1024 315.05823218642473 L 1025 315.04460614726617 L 1026 315.0327931487608 L 1027 315.0227934372124 L 1028 315.01460722111733 L 1029 315.00823467116015 L 1030 315.00367592021007 L 1031 315.0009310633181 L 1032 315.0000001577152 L 1033 315.00088322281096 L 1034 315.00358024019323 L 1035 315.0080911536286 L 1036 315.0144158690634 L 1037 315.02255425462585 L 1038 315.03250614062864 L 1039 315.0442713195726 L 1040 315.057849546151 L 1041 315.0732405372545 L 1042 315.09044397197727 L 1043 315.10945949162374 L 1044 315.1302866997156 L 1045 315.15292516200077 L 1046 315.1773744064618 L 1047 315.20363392332627 L 1048 315.23170316507685 L 1049 315.2615815464633 L 1050 315.2932684445141 L 1051 315.3267631985501 L 1052 315.36206511019753 L 1053 315.3991734434032 L 1054 315.4380874244496 L 1055 315.47880624197074 L 1056 315.52132904696987 L 1057 315.5656549528362 L 1058 315.6117830353641 L 1059 315.6597123327721 L 1060 315.70944184572295 L 1061 315.76097053734435 L 1062 315.814297333251 L 1063 315.86942112156635 L 1064 315.92634075294643 L 1065 315.98505504060324 L 1066 316.0455627603301 L 1067 316.1078626505265 L 1068 316.1719534122249 L 1069 316.2378337091178 L 1070 316.30550216758525 L 1071 316.3749573767237 L 1072 316.4461978883757 L 1073 316.51922221715955 L 1074 316.5940288405006 L 1075 316.6706161986629 L 1076 316.7489826947819 L 1077 316.82912669489747 L 1078 316.91104652798816 L 1079 316.9947404860059 L 1080 317.0802068239118 L 1081 317.1674437597124 L 1082 317.2564494744968 L 1083 317.34722211247464 L 1084 317.4397597810148 L 1085 317.534060550685 L 1086 317.6301224552916 L 1087 317.7279434919211 L 1088 317.82752162098166 L 1089 317.92885476624554 L 1090 318.03194081489255 L 1091 318.136777617554 L 1092 318.24336298835766 L 1093 318.35169470497317 L 1094 318.46177050865856 L 1095 318.57358810430696 L 1096 318.687145160495 L 1097 318.802439309531 L 1098 318.9194681475045 L 1099 319.0382292343365 L 1100 319.15872009382997 L 1101 319.2809382137218 L 1102 319.4048810457351 L 1103 319.53054600563246 L 1104 319.65793047326946 L 1105 319.78703179264966 L 1106 319.91784727197984 L 1107 320.05037418372615 L 1108 320.1846097646709 L 1109 320.3205512159702 L 1110 320.4581957032126 L 1111 320.5975403564778 L 1112 320.7385822703965 L 1113 320.88131850421127 L 1114 321.0257460818376 L 1115 321.17186199192633 L 1116 321.31966318792587 L 1117 321.46914658814603 L 1118 321.62030907582243 L 1119 321.7731474991813 L 1120 321.9276586715049 L 1121 322.0838393711988 L 1122 322.24168634185804 L 1123 322.40119629233584 L 1124 322.56236589681174 L 1125 322.72519179486113 L 1126 322.8896705915253 L 1127 323.05579885738223 L 1128 323.223573128618 L 1129 323.39298990709915 L 1130 323.5640456604456 L 1131 323.73673682210404 L 1132 323.91105979142276 L 1133 324.08701093372633 L 1134 324.2645865803916 L 1135 324.4437830289241 L 1136 324.6245965430351 L 1137 324.80702335272 L 1138 324.99105965433637 L 1139 325.1767016106834 L 1140 325.36394535108224 L 1141 325.55278697145627 L 1142 325.7432225344128 L 1143 325.9352480693251 L 1144 326.12885957241497 L 1145 326.3240530068366 L 1146 326.5208243027603 L 1147 326.7191693574579 L 1148 326.91908403538764 L 1149 327.120564168281 L 1150 327.3236055552293 L 1151 327.5282039627713 L 1152 327.73435512498133 L 1153 327.9420547435589 L 1154 328.15129848791736 L 1155 328.36208199527493 L 1156 328.57440087074525 L 1157 328.78825068742924 L 1158 329.0036269865074 L 1159 329.2205252773326 L 1160 329.438941037524 L 1161 329.6588697130608 L 1162 329.8803067183779 L 1163 330.10324743646106 L 1164 330.32768721894325 L 1165 330.5536213862016 L 1166 330.7810452274549 L 1167 331.0099540008621 L 1168 331.2403429336205 L 1169 331.4722072220664 L 1170 331.705542031774 L 1171 331.940342497657 L 1172 332.1766037240699 L 1173 332.4143207849098 L 1174 332.65348872371953 L 1175 332.8941025537906 L 1176 333.1361572582674 L 1177 333.37964779025174 L 1178 333.624569072908 L 1179 333.8709159995694 L 1180 334.11868343384367 L 1181 334.36786620972094 L 1182 334.618459131681 L 1183 334.87045697480187 L 1184 335.12385448486845 L 1185 335.3786463784825 L 1186 335.6348273431723 L 1187 335.8923920375038 L 1188 336.15133509119187 L 1189 336.4116511052121 L 1190 336.6733346519138 L 1191 336.93638027513276 L 1192 337.2007824903051 L 1193 337.4665357845816 L 1194 337.73363461694294 L 1195 338.002073418315 L 1196 338.2718465916848 L 1197 338.54294851221744 L 1198 338.8153735273735 L 1199 339.0891159570264 L 1200 339.36417009358144 L 1201 339.6405302020945 L 1202 339.9181905203915 L 1203 340.1971452591887 L 1204 340.4773886022134 L 1205 340.75891470632524 L 1206 341.04171770163805 L 1207 341.32579169164194 L 1208 341.61113075332673 L 1209 341.89772893730503 L 1210 342.18558026793653 L 1211 342.47467874345244 L 1212 342.76501833608086 L 1213 343.0565929921721 L 1214 343.34939663232524 L 1215 343.6434231515147 L 1216 343.93866641921755 L 1217 344.2351202795415 L 1218 344.5327785513529 L 1219 344.83163502840614 L 1220 345.1316834794724 L 1221 345.43291764847 L 1222 345.73533125459505 L 1223 346.0389179924518 L 1224 346.34367153218454 L 1225 346.6495855196094 L 1226 346.956653576347 L 1227 347.26486929995525 L 1228 347.5742262640631 L 1229 347.8847180185041 L 1230 348.1963380894513 L 1231 348.5090799795521 L 1232 348.8229371680636 L 1233 349.1379031109889 L 1234 349.453971241213 L 1235 349.77113496864024 L 1236 350.08938768033147 L 1237 350.40872274064174 L 1238 350.7291334913593 L 1239 351.0506132518436 L 1240 351.3731553191651 L 1241 351.6967529682451 L 1242 352.0213994519955 L 1243 352.34708800145995 L 1244 352.6738118259546 L 1245 353.00156411321 L 1246 353.33033802951303 L 1247 353.66012671984925 L 1248 353.9909233080459 L 1249 354.3227208969156 L 1250 354.6555125683995 L 1251 354.98929138371216 L 1252 355.3240503834858 L 1253 355.65978258791563 L 1254 355.99648099690535 L 1255 356.334138590213 L 1256 356.67274832759733 L 1257 357.0123031489648 L 1258 357.35279597451654 L 1259 357.6942197048963 L 1260 358.0365672213378 L 1261 358.37983138581404 L 1262 358.7240050411854 L 1263 359.0690810113494 L 1264 359.41505210138973 L 1265 359.7619110977271 L 1266 360.10965076826875 L 1267 360.4582638625598 L 1268 360.80774311193437 L 1269 361.1580812296668 L 1270 361.5092709111241 L 1271 361.8613048339178 L 1272 362.2141756580569 L 1273 362.56787602610063 L 1274 362.9223985633122 L 1275 363.2777358778124 L 1276 363.63388056073364 L 1277 363.9908251863746 L 1278 364.3485623123548 L 1279 364.70708447977 L 1280 365.06638421334776 L 1281 365.42645402160326 L 1282 365.78728639699517 L 1283 366.1488738160826 L 1284 366.5112087396819 L 1285 366.8742836130236 L 1286 367.23809086591024 L 1287 367.6026229128741 L 1288 367.9678721533352 L 1289 368.33383097175994 L 1290 368.7004917378198 L 1291 369.0678468065508 L 1292 369.4358885185121 L 1293 369.8046091999466 L 1294 370.17400116294027 L 1295 370.54405670558276 L 1296 370.91476811212794 L 1297 371.2861276531549 L 1298 371.6581275857287 L 1299 372.03076015356237 L 1300 372.40401758717803 L 1301 372.77789210406945 L 1302 373.1523759088641 L 1303 373.52746119348535 L 1304 373.9031401373159 L 1305 374.2794049073603 L 1306 374.6562476584086 L 1307 375.03366053319974 L 1308 375.41163566258547 L 1309 375.7901651656945 L 1310 376.1692411500965 L 1311 376.54885571196706 L 1312 376.9290009362521 L 1313 377.30966889683344 L 1314 377.69085165669344 L 1315 378.07254126808084 L 1316 378.4547297726764 L 1317 378.8374092017588 L 1318 379.22057157637107 L 1319 379.6042089074864 L 1320 379.9883131961751 L 1321 380.37287643377147 L 1322 380.75789060204045 L 1323 381.1433476733449 L 1324 381.52923961081336 L 1325 381.91555836850705 L 1326 382.30229589158785 L 1327 382.68944411648647 L 1328 383.07699497107023 L 1329 383.4649403748117 L 1330 383.8532722389568 L 1331 384.2419824666938 L 1332 384.631062953322 L 1333 385.0205055864205 L 1334 385.4103022460179 L 1335 385.80044480476107 L 1336 386.1909251280848 L 1337 386.5817350743814 L 1338 386.9728664951706 L 1339 387.364311235269 L 1340 387.75606113296084 L 1341 388.14810802016746 L 1342 388.54044372261797 L 1343 388.93306006001956 L 1344 389.3259488462282 L 1345 389.7191018894193 L 1346 390.11251099225825 L 1347 390.50616795207173 L 1348 390.9000645610184 L 1349 391.2941926062601 L 1350 391.68854387013357 L 1351 392.08311013032096 L 1352 392.4778831600219 L 1353 392.87285472812476 L 1354 393.2680165993784 L 1355 393.6633605345637 L 1356 394.05887829066563 L 1357 394.4545616210448 L 1358 394.8504022756096 L 1359 395.2463920009883 L 1360 395.6425225407007 L 1361 396.038785635331 L 1362 396.4351730226993 L 1363 396.83167643803426 L 1364 397.2282876141453 L 1365 397.6249982815949 L 1366 398.0218001688715 L 1367 398.41868500256123 L 1368 398.8156445075208 L 1369 399.2126704070501 L 1370 399.6097544230647 L 1371 400.0068882762683 L 1372 400.4040636863256 L 1373 400.8012723720349 L 1374 401.1985060515004 L 1375 401.59575644230546 L 1376 401.99301526168483 L 1377 402.3902742266977 L 1378 402.78752505440013 L 1379 403.1847594620177 L 1380 403.58196916711864 L 1381 403.97914588778593 L 1382 404.3762813427906 L 1383 404.77336725176383 L 1384 405.1703953353699 L 1385 405.56735731547883 L 1386 405.96424491533884 L 1387 406.361049859749 L 1388 406.757763875232 L 1389 407.154378690206 L 1390 407.5508860351578 L 1391 407.947277642815 L 1392 408.34354524831804 L 1393 408.73968058939323 L 1394 409.13567540652446 L 1395 409.5315214431255 L 1396 409.92721044571226 L 1397 410.32273416407486 L 1398 410.71808435144976 L 1399 411.1132527646915 L 1400 411.50823116444457 L 1401 411.90301131531527 L 1402 412.29758498604366 L 1403 412.6919439496746 L 1404 413.0860799837302 L 1405 413.47998487038006 L 1406 413.87365039661375 L 1407 414.26706835441126 L 1408 414.6602305409145 L 1409 415.0531287585985 L 1410 415.4457548154419 L 1411 415.83810052509784 L 1412 416.2301577070651 L 1413 416.62191818685795 L 1414 417.01337379617735 L 1415 417.4045163730806 L 1416 417.7953377621519 L 1417 418.18582981467233 L 1418 418.57598438878966 L 1419 418.9657933496881 L 1420 419.3552485697582 L 1421 419.7443419287659 L 1422 420.133065314022 L 1423 420.52141062055153 L 1424 420.9093697512623 L 1425 421.2969346171143 L 1426 421.6840971372877 L 1427 422.070849239352 L 1428 422.45718285943366 L 1429 422.8430899423848 L 1430 423.228562441951 L 1431 423.61359232093895 L 1432 423.9981715513839 L 1433 424.38229211471753 L 1434 424.7659460019346 L 1435 425.1491252137602 L 1436 425.5318217608168 L 1437 425.9140276637902 L 1438 426.29573495359637 L 1439 426.67693567154754 L 1440 427.0576218695179 L 1441 427.4377856101098 L 1442 427.8174189668187 L 1443 428.19651402419885 L 1444 428.57506287802806 L 1445 428.95305763547253 L 1446 429.33049041525186 L 1447 429.7073533478026 L 1448 430.083638575443 L 1449 430.4593382525365 L 1450 430.8344445456554 L 1451 431.2089496337443 L 1452 431.58284570828295 L 1453 431.9561249734493 L 1454 432.32877964628176 L 1455 432.70080195684176 L 1456 433.0721841483755 L 1457 433.44291847747616 L 1458 433.8129972142446 L 1459 434.18241264245114 L 1460 434.55115705969615 L 1461 434.9192227775707 L 1462 435.2866021218172 L 1463 435.6532874324888 L 1464 436.01927106410955 L 1465 436.3845453858336 L 1466 436.74910278160445 L 1467 437.11293565031355 L 1468 437.4760364059592 L 1469 437.83839747780405 L 1470 438.20001131053374 L 1471 438.56087036441363 L 1472 438.92096711544656 L 1473 439.2802940555298 L 1474 439.638843692611 L 1475 439.9966085508449 L 1476 440.35358117074907 L 1477 440.70975410935944 L 1478 441.06511994038556 L 1479 441.41967125436526 L 1480 441.77340065881924 L 1481 442.1263007784053 L 1482 442.47836425507194 L 1483 442.82958374821186 L 1484 443.1799519348151 L 1485 443.5294615096216 L 1486 443.8781051852736 L 1487 444.22587569246747 L 1488 444.57276578010527 L 1489 444.9187682154463 L 1490 445.2638757842573 L 1491 445.6080812909635 L 1492 445.9513775587981 L 1493 446.2937574299521 L 1494 446.63521376572396 L 1495 446.97573944666766 L 1496 447.3153273727418 L 1497 447.6539704634573 L 1498 447.9916616580251 L 1499 448.3283939155034 L 1500 448.6641602149447 L 1501 448.9989535555415 L 1502 449.3327669567732 L 1503 449.6655934585508 L 1504 449.9974261213626 L 1505 450.32825802641867 L 1506 450.658082275795 L 1507 450.98689199257757 L 1508 451.3146803210054 L 1509 451.641440426614 L 1510 451.9671654963774 L 1511 452.2918487388503 L 1512 452.6154833843099 L 1513 452.93806268489686 L 1514 453.25957991475593 L 1515 453.5800283701763 L 1516 453.89940136973166 L 1517 454.21769225441875 L 1518 454.53489438779695 L 1519 454.85100115612636 L 1520 455.16600596850554 L 1521 455.47990225700926 L 1522 455.79268347682523 L 1523 456.1043431063906 L 1524 456.4148746475279 L 1525 456.72427162558046 L 1526 457.0325275895479 L 1527 457.3396361122199 L 1528 457.64559079031073 L 1529 457.95038524459255 L 1530 458.25401312002845 L 1531 458.5564680859049 L 1532 458.857743835964 L 1533 459.1578340885346 L 1534 459.45673258666363 L 1535 459.7544330982462 L 1536 460.0509294161557 L 1537 460.34621535837357 L 1538 460.64028476811757 L 1539 460.93313151397047" stroke-linecap="round" stroke-linejoin="round" stroke-miterlimit="10" stroke-width="10"/></g></svg>