<svg width="1900" height="200" xmlns="http://www.w3.org/2000/svg"><defs><linearGradient id="a" gradientTransform="rotate(90)"><stop offset="5%" stop-color="#b1ddf1"/><stop offset="95%" stop-color="#c4e5f4"/></linearGradient><linearGradient id="b" gradientTransform="rotate(90)"><stop offset="5%" stop-color="#fff"/><stop offset="95%" stop-color="#fff"/></linearGradient></defs><path fill="#fff" d="M0 0h1900v200H0z"/><path d="M0 66c63.575 2.168 127.15 4.336 216 2 88.85-2.336 202.975-9.175 283-13 80.025-3.825 125.95-4.635 199-3 73.05 1.635 173.226 5.714 253 13s139.146 17.778 209 20c69.854 2.222 150.192-3.825 239-5 88.808-1.175 186.088 2.521 271 1s157.456-8.26 270-15l-40 134H0Z" fill="url(#a)"/><path d="M0 133c59.798-4.817 119.595-9.635 208-13s205.417-5.278 286-3c80.583 2.278 124.736 8.748 201 15 76.264 6.252 184.637 12.286 275 17s162.716 8.109 239 0c76.284-8.109 156.5-27.722 227-29 70.5-1.278 131.286 15.778 207 21 75.714 5.222 166.357-1.389 297-8l-40 67H0Z" fill="url(#b)"/></svg>