<svg width="1900" height="200" xmlns="http://www.w3.org/2000/svg"><defs><linearGradient id="a" gradientTransform="rotate(90)"><stop offset="5%" stop-color="#fccb06"/><stop offset="95%" stop-color="#fcd844"/></linearGradient><linearGradient id="b" gradientTransform="rotate(90)"><stop offset="5%" stop-color="#fff"/><stop offset="95%" stop-color="#fff"/></linearGradient></defs><path d="M0 0h1900v200H0z"/><path d="M0 66c88.626 1.385 177.251 2.77 268 4s183.62 2.304 265-2 151.267-13.988 251-10c99.733 3.988 229.31 21.646 334 23 104.69 1.354 184.494-13.597 266-19 81.506-5.403 164.716-1.258 251 1 86.284 2.258 175.642 2.629 305 3l-40 134H0Z" fill="url(#a)"/><path d="M0 133c76.043-.036 152.086-.071 233 0 80.914.071 166.699.25 274 0 107.301-.25 236.12-.929 328 4s146.824 15.465 235 14c88.176-1.465 209.586-14.933 301-15 91.414-.067 152.833 13.267 236 15 83.167 1.733 188.084-8.133 333-18l-40 67H0Z" fill="url(#b)"/></svg>