<?xml version="1.0" encoding="iso-8859-1"?>
<!-- Uploaded to: SVG Repo, www.svgrepo.com, Generator: SVG Repo Mixer Tools -->
<svg fill="#000000" height="50px" width="39px" version="1.1" id="Layer_1" xmlns="http://www.w3.org/2000/svg" xmlns:xlink="http://www.w3.org/1999/xlink" 
	 viewBox="0 0 512 512" xml:space="preserve">
<g>
	<g>
		<path d="M490.667,213.333H384V106.667C384,83.099,403.099,64,426.667,64s42.667,19.099,42.667,42.667
			c0,11.782,9.551,21.333,21.333,21.333S512,118.449,512,106.667c0-47.131-38.202-85.333-85.333-85.333
			s-85.333,38.202-85.333,85.333v64H170.667v-64c0-23.567,19.099-42.667,42.667-42.667S256,83.099,256,106.667
			c0,11.782,9.551,21.333,21.333,21.333c11.782,0,21.333-9.551,21.333-21.333c0-47.131-38.202-85.333-85.333-85.333
			S128,59.535,128,106.667v106.667H21.333C9.551,213.333,0,222.885,0,234.667C0,246.449,9.551,256,21.333,256H128v213.333
			c0,11.782,9.551,21.333,21.333,21.333c11.782,0,21.333-9.551,21.333-21.333v-42.667h170.667v42.667
			c0,11.782,9.551,21.333,21.333,21.333S384,481.115,384,469.333V256h106.667c11.782,0,21.333-9.551,21.333-21.333
			C512,222.885,502.449,213.333,490.667,213.333z M341.333,213.333v64H170.667v-64H341.333z M170.667,384v-64h170.667v64H170.667z"
			/>
	</g>
</g>
</svg>